Coordinates
version=1
nRows=8
nColumns=40
inDegrees=yes

Units are S.I. units (second, meters, Newtons, ...)
If the header above contains a line with 'inDegrees', this indicates whether rotational values are in degrees (yes) or radians (no).

endheader
time	pelvis_tilt	pelvis_list	pelvis_rotation	pelvis_tx	pelvis_ty	pelvis_tz	hip_flexion_r	hip_adduction_r	hip_rotation_r	knee_angle_r	knee_angle_r_beta	ankle_angle_r	subtalar_angle_r	mtp_angle_r	hip_flexion_l	hip_adduction_l	hip_rotation_l	knee_angle_l	knee_angle_l_beta	ankle_angle_l	subtalar_angle_l	mtp_angle_l	lumbar_extension	lumbar_bending	lumbar_rotation	arm_flex_r	arm_add_r	arm_rot_r	elbow_flex_r	pro_sup_r	wrist_flex_r	wrist_dev_r	arm_flex_l	arm_add_l	arm_rot_l	elbow_flex_l	pro_sup_l	wrist_flex_l	wrist_dev_l
      4.02000000	    -16.78504206	      0.49460419	     -7.58245281	     -0.36466879	      0.61394570	     -0.87867546	     80.56037425	    -17.02880304	      9.54980924	    108.80698720	      1.89904018	     41.44151849	      0.00000000	      0.00000000	     78.96357057	    -30.26952347	      8.57080465	    109.53544099	      1.91175409	     41.72771243	      0.00000000	      0.00000000	    -23.72545145	     -3.64969582	     10.10635185	    -56.80457868	    -38.89345175	      0.54192459	    118.85320855	     88.06674662	      0.00000000	      0.00000000	     -1.29451146	    -67.10109674	     65.95582944	    113.14278748	     88.18885952	      0.00000000	      0.00000000
      4.02500000	    -17.06430248	      0.66892737	     -7.66006546	     -0.36670078	      0.60787939	     -0.87848178	     81.68019024	    -16.88492316	     10.11803196	    109.60286733	      1.91293090	     41.46344300	      0.00000000	      0.00000000	     79.95030668	    -30.24063951	      8.94119789	    110.28965363	      1.92491759	     41.89336757	      0.00000000	      0.00000000	    -23.98447238	     -3.90392269	     10.03432529	    -56.02823011	    -39.35135772	      1.18169601	    118.49723845	     88.08462344	      0.00000000	      0.00000000	     -0.99370713	    -67.12861220	     66.28324289	    113.10557212	     88.19828517	      0.00000000	      0.00000000
      4.03000000	    -17.23858359	      0.89114023	     -7.80312214	     -0.36950006	      0.60238268	     -0.87841152	     82.74040737	    -16.63939108	     10.77005630	    110.29590957	      1.92502677	     41.42336518	      0.00000000	      0.00000000	     80.80042666	    -30.15808270	      9.24892415	    110.99397138	      1.93721025	     41.99514355	      0.00000000	      0.00000000	    -24.46438202	     -4.23411222	      9.95814281	    -55.24968684	    -39.96818351	      1.70688983	    118.35807520	     88.08982983	      0.00000000	      0.00000000	     -0.60207605	    -67.20232210	     66.68740153	    113.27714000	     88.24453107	      0.00000000	      0.00000000
      4.03500000	    -17.11244151	      0.90047212	     -7.82506628	     -0.37119375	      0.59745129	     -0.87835167	     83.28326915	    -16.57244564	     11.14247660	    111.01696037	      1.93761148	     41.57881411	      0.00000000	      0.00000000	     81.34036906	    -30.11393218	      9.70251785	    111.70304106	      1.94958585	     42.17417299	      0.00000000	      0.00000000	    -25.27644808	     -4.30279654	      9.95944821	    -54.81385659	    -40.20741414	      1.76269578	    118.23319369	     88.08494051	      0.00000000	      0.00000000	     -0.35135271	    -67.05330260	     66.68415297	    113.18622637	     88.23764182	      0.00000000	      0.00000000
      4.04000000	    -19.51167966	      5.11944207	     -8.03925775	     -0.37632920	      0.58472378	     -0.88063400	     89.73957617	    -16.87009772	     16.44331048	    112.13533808	      1.95713086	     40.54851046	      0.00000000	      0.00000000	     83.02179999	    -28.61414845	      5.85301106	    112.65121185	      1.96613455	     42.20058962	      0.00000000	      0.00000000	    -22.49646379	     -8.33321464	      8.63247149	    -54.44350967	    -40.59962386	      3.08278707	    118.17159003	     88.08719075	      0.00000000	      0.00000000	      0.15678755	    -68.15818587	     67.90083988	    113.97706725	     88.22699839	      0.00000000	      0.00000000
      4.04500000	    -18.21320949	      2.87515384	     -7.83115006	     -0.37601972	      0.58403670	     -0.87937620	     87.22824731	    -16.74253874	     14.14348366	    112.62658175	      1.96570468	     40.87410490	      0.00000000	      0.00000000	     83.14830807	    -29.11233644	      8.71142259	    113.20853392	      1.97586166	     42.39551706	      0.00000000	      0.00000000	    -24.82261320	     -6.25182387	      8.88821560	    -53.26374830	    -41.56249494	      3.80566257	    117.75138570	     88.09860875	      0.00000000	      0.00000000	      0.71529568	    -67.57037028	     68.32483025	    113.56427001	     88.25260545	      0.00000000	      0.00000000
      4.05000000	    -17.43843569	     -0.00871318	     -7.96026046	     -0.37648693	      0.58259695	     -0.87696590	     84.91040723	    -15.73697692	     11.11400968	    112.96194230	      1.97155782	     41.79459603	      0.00000000	      0.00000000	     84.52002307	    -30.22713069	     12.68265477	    113.86267507	      1.98727858	     42.10596626	      0.00000000	      0.00000000	    -26.54520891	     -3.66156454	      9.92377887	    -52.36197891	    -42.63999456	      4.42740357	    117.63761137	     88.07199264	      0.00000000	      0.00000000	      1.34897683	    -66.96638932	     69.04509939	    113.16958424	     88.24760184	      0.00000000	      0.00000000
      4.05500000	    -19.98489598	      5.00199632	     -8.00352345	     -0.38167877	      0.56925043	     -0.88051649	     92.02352381	    -16.37286661	     17.29449710	    114.04823704	      1.99051724	     40.69862849	      0.00000000	      0.00000000	     85.91312933	    -28.41280980	      7.73813975	    114.85572794	      2.00461062	     42.33720856	      0.00000000	      0.00000000	    -23.50611737	     -8.22089531	      8.35202337	    -52.89748986	    -42.45557677	      4.73417229	    117.97712341	     88.08079835	      0.00000000	      0.00000000	      2.07033278	    -68.00961447	     70.33130342	    113.90510478	     88.24556910	      0.00000000	      0.00000000
